<svg xmlns="http://www.w3.org/2000/svg" viewBox="0 0 512 512" width="512" height="512">
  <title>Fourmi</title>
  <g transform="translate(0.000000,512.000000) scale(0.100000,-0.100000)"
fill="#000000" stroke="none">
<path d="M0 4510 l0 -150 629 0 628 0 97 -161 c53 -88 96 -164 96 -169 0 -5
-26 -18 -57 -30 -262 -98 -633 -347 -931 -626 l-74 -69 117 -105 c456 -408
879 -638 1223 -665 l93 -8 -8 -46 c-17 -96 -8 -231 21 -314 14 -42 26 -84 26
-91 0 -7 -25 -75 -56 -149 l-56 -136 -240 120 c-132 66 -243 117 -246 114 -4
-3 -119 -288 -257 -633 l-251 -627 -192 -3 -192 -2 0 -150 0 -150 293 0 293 0
219 548 c120 301 225 562 232 579 l13 33 240 -120 c132 -66 242 -120 244 -120
2 0 41 93 86 208 46 114 87 214 91 223 7 13 18 10 84 -22 162 -79 368 -82 534
-8 38 17 48 18 55 7 5 -8 126 -309 270 -669 l262 -654 287 -3 288 -2 -3 147
-3 148 -182 3 -181 2 -121 301 c-89 224 -116 300 -103 296 9 -3 58 -17 107
-31 165 -49 254 -60 465 -60 131 1 221 6 275 16 44 9 81 15 83 13 1 -1 76
-188 166 -416 l164 -414 296 -3 296 -2 0 150 0 150 -193 0 -193 0 -122 308
c-67 170 -122 314 -122 320 0 6 19 21 43 33 201 103 365 291 407 469 19 76 16
203 -4 275 -87 295 -387 510 -829 591 -127 24 -417 24 -547 1 -154 -28 -268
-64 -390 -125 -63 -31 -118 -58 -121 -60 -3 -1 -23 32 -44 75 -55 113 -172
228 -286 283 -46 22 -111 45 -144 52 -33 7 -61 13 -63 14 -2 1 4 35 12 75 35
172 29 392 -15 537 -87 281 -312 447 -640 468 l-96 7 -173 288 -173 289 -713
0 -714 0 0 -150z m1790 -1160 l0 -150 -150 0 -150 0 0 150 0 150 150 0 150 0
0 -150z"/>
</g>
</svg>